<svg id="Layer_1" data-name="Layer 1" xmlns="http://www.w3.org/2000/svg" xmlns:xlink="http://www.w3.org/1999/xlink" viewBox="0 0 414.13 349.66"><defs><linearGradient id="linear-gradient" x1="361.96" y1="-94.79" x2="341.4" y2="280.86" gradientUnits="userSpaceOnUse"><stop offset="0.02" stop-color="#fff" stop-opacity="0"/><stop offset="0.14" stop-color="#fff" stop-opacity="0.06"/><stop offset="0.32" stop-color="#fff" stop-opacity="0.39"/><stop offset="0.68" stop-color="#fff" stop-opacity="0.68"/><stop offset="1" stop-color="#fff"/></linearGradient><linearGradient id="linear-gradient-2" x1="276.72" y1="-291.9" x2="256.15" y2="83.75" gradientUnits="userSpaceOnUse"><stop offset="0.02" stop-color="#fff" stop-opacity="0"/><stop offset="0.32" stop-color="#fff" stop-opacity="0.39"/><stop offset="0.68" stop-color="#fff" stop-opacity="0.68"/><stop offset="1" stop-color="#fff"/></linearGradient><linearGradient id="linear-gradient-3" x1="99.56" y1="-203.95" x2="78.99" y2="171.7" xlink:href="#linear-gradient-2"/><linearGradient id="linear-gradient-4" x1="78.9" y1="-97.11" x2="58.34" y2="278.54" xlink:href="#linear-gradient-2"/><linearGradient id="linear-gradient-5" x1="171.99" y1="198.08" x2="209.46" y2="249.88" xlink:href="#linear-gradient-2"/><linearGradient id="linear-gradient-6" x1="136.72" y1="253.93" x2="91.04" y2="293.64" gradientUnits="userSpaceOnUse"><stop offset="0" stop-opacity="0"/><stop offset="0.99"/></linearGradient></defs><title>Analyza Data and chart</title><path d="M416,249.47c-7.32,13.79-20.57,24.56-24.24,39.74-1.59,6.55-1.22,13.42-2,20.12-2.88,23.48-20.48,43.05-41.47,54.14-.88.48-1.77.92-2.66,1.36-13.77,6.73-28.69,10.4-43.9,12.69-9.25,1.38-18.61,2.24-27.89,3q-57.87,4.58-116,3.34c-18.71-.38-37.79-1.27-55.39-7.48-.9-.31-1.79-.64-2.68-1-14.28-5.55-26.95-14.64-38.17-25.06l-.51-.48c-16.74-15.64-30.57-34.53-39.52-55.62A145.18,145.18,0,0,1,15.21,199c5.29-18.75,14.53-36.63,16-56,1.07-14.6-2.36-29.38-.07-43.84,4.53-28.7,31.21-49.83,59.38-56.94s57.82-3.06,86.59,1c14.06,2,30.51,7.37,44.42,3.07C238.6,41,253,34.46,271.42,34.42c7.53,0,15.21.79,22.11,3.81,8.36,3.65,15,10.27,21.77,16.36,18.95,17,40.55,30.74,59.92,47.24s36.91,36.58,44,61c3.49,11.94,4.35,24.49,4.72,36.92C424.48,216.73,423.93,234.48,416,249.47Z" transform="translate(-9.98 -34.42)" fill="#6a1b9b" opacity="0.18" style="isolation:isolate"/><rect x="96.33" y="113.1" width="226.93" height="161.62" rx="15.27" fill="#6a1b9b"/><rect x="110.18" y="124.64" width="199.23" height="135.24" fill="#fff"/><rect x="201.55" y="187.58" width="5.94" height="54.31" fill="#6a1b9b"/><rect x="211.88" y="196.46" width="5.94" height="45.43" fill="#6a1b9b"/><rect x="222" y="204.57" width="5.94" height="37.32" fill="#6a1b9b"/><rect x="232.33" y="196.46" width="5.94" height="45.43" fill="#6a1b9b"/><rect x="242.45" y="214.73" width="5.94" height="27.16" fill="#6a1b9b"/><rect x="252.78" y="196.46" width="5.94" height="45.43" fill="#6a1b9b"/><rect x="262.9" y="210.1" width="5.94" height="31.79" fill="#6a1b9b"/><rect x="273.23" y="203.98" width="5.94" height="37.91" fill="#6a1b9b"/><rect x="131.95" y="220.63" width="33.97" height="1.98" fill="#6a1b9b"/><rect x="131.95" y="226.12" width="33.97" height="1.98" fill="#6a1b9b"/><rect x="131.95" y="231.62" width="33.97" height="1.98" fill="#6a1b9b"/><rect x="131.95" y="237.12" width="33.97" height="1.98" fill="#6a1b9b"/><rect x="131.95" y="242.62" width="33.97" height="1.98" fill="#6a1b9b"/><rect x="178.13" y="220.63" width="33.97" height="24.41" fill="none"/><path d="M176.6,185.5a22.1,22.1,0,0,0-.13,44.2V222h-.09A14.62,14.62,0,1,1,191,207.38a13.19,13.19,0,0,1-.16,2.09h7.77a16.72,16.72,0,0,0,.09-1.87A22.09,22.09,0,0,0,176.6,185.5Z" transform="translate(-9.98 -34.42)" fill="#6a1b9b"/><rect x="312.43" y="132.86" width="70.37" height="69.05" rx="7.47" fill="url(#linear-gradient)"/><rect x="221.85" y="33.06" width="70.37" height="69.05" rx="7.47" fill="url(#linear-gradient-2)"/><rect x="49.93" y="25.36" width="70.37" height="69.05" rx="7.47" fill="url(#linear-gradient-3)"/><rect x="29.46" y="128.88" width="70.37" height="69.05" rx="7.47" fill="url(#linear-gradient-4)"/><polygon points="277.09 210.29 276.31 210.09 289.41 159.75 313.03 159.75 313.03 160.56 290.04 160.56 277.09 210.29" fill="#6a1b9b"/><polygon points="221.92 82.28 211.05 82.28 181.58 181.41 180.89 181.34 210.43 81.47 221.92 81.47 221.92 82.28" fill="#6a1b9b"/><polygon points="164.99 158.17 139.03 76.73 118.76 76.73 118.76 75.92 139.62 75.92 139.71 76.21 165.76 157.92 164.99 158.17" fill="#6a1b9b"/><polygon points="135.06 189.02 116.6 168.44 98.5 168.44 98.5 167.63 116.96 167.63 135.67 188.48 135.06 189.02" fill="#6a1b9b"/><path d="M198.61,209.74a22.07,22.07,0,0,1-22,20.23h-.13v-7.69a14.61,14.61,0,0,0,14.37-12.54Z" transform="translate(-9.98 -34.42)" fill="#6a1b9b"/><path d="M198.61,209.47a22.07,22.07,0,0,1-22,20.23h-.13V222a14.6,14.6,0,0,0,14.37-12.53Z" transform="translate(-9.98 -34.42)" fill="url(#linear-gradient-5)"/><polygon points="111.93 198.1 122.22 176.49 145.99 190.38 129.63 224.13 116.87 217.03 111.93 198.1" fill="#6a1b9b"/><polygon points="113.88 195.94 122.53 179.17 142.08 190.59 127.26 220.33 117.18 212.61 113.88 195.94" fill="#fff"/><path d="M123.17,283.53,130,325.79,123.17,368l3.85,3-6.32-.27.55-43.63-11.8-30.73,1.43,31.91L104,369.42l3,1.64-6.86-.27,2.94-42.66-5.35-25.51s-4.72-18.54,0-21.56S123.17,283.53,123.17,283.53Z" transform="translate(-9.98 -34.42)" fill="#3e3e54"/><path d="M98.2,220.14S114.81,222,118.92,225s8.37,7.76,8.37,11.6,1.65,22.77,1.65,22.77l6.86-15.91,3.84,2.19s-4.39,27.58-6.86,28.4-9.19-1-9.19-1l-.42,10.43s-22.5,2.19-25.51-2.47S87.54,227.76,98.2,220.14Z" transform="translate(-9.98 -34.42)" fill="#6a1b9b"/><path d="M112.46,214.93s-2,4.23-.93,7.69c0,0-6.17-.84-6.35-1.57s.77-7.2.06-9.19S112.46,214.93,112.46,214.93Z" transform="translate(-9.98 -34.42)" fill="#eea886"/><path d="M105.83,197.71c2.43-1,9.08-2.5,11.54,7.43s-1.28,10.41-5.15,10.45-10.39-6.25-11-8.28S98.92,200.69,105.83,197.71Z" transform="translate(-9.98 -34.42)" fill="#eea886"/><path d="M136.15,238.86a2.7,2.7,0,0,1,.1-.8c.23-.73,1-1.13,1.42-1.78a3.65,3.65,0,0,0,.4-1.34,3.25,3.25,0,0,1,.33-1.19,1.07,1.07,0,0,1,1-.59c.56.08.85.7,1,1.24a15.36,15.36,0,0,1-.4,10c-.18.47-.51,1-1,1a1.2,1.2,0,0,1-.48-.17c-1-.54-2.42-1-2.47-2.17C136,241.63,136.12,240.23,136.15,238.86Z" transform="translate(-9.98 -34.42)" fill="#eea886"/><path d="M138.47,235.37,133.81,231l-.41.82,4.27,4.48S138.54,236,138.47,235.37Z" transform="translate(-9.98 -34.42)" fill="#6a1b9b"/><path d="M123.59,273.1s-2.41-1-3.23-8-1.85-14.2-1.85-14.2V283.8H124Z" transform="translate(-9.98 -34.42)" fill="url(#linear-gradient-6)"/><path d="M113.26,195.54A4.82,4.82,0,0,0,111,193a2.62,2.62,0,0,0-2.54-.14,2.58,2.58,0,0,0-2.09-1.05,3.43,3.43,0,0,0-2,.31,1.65,1.65,0,0,0-.85,1.76,10.54,10.54,0,0,0-3,0,2.22,2.22,0,0,0-.88.28,2.16,2.16,0,0,0-.7,1,10.23,10.23,0,0,0-.85,4,4.23,4.23,0,0,0-1.77,3.22,4.29,4.29,0,0,0,1.45,3.39,4.86,4.86,0,0,0,.54,3.91,3.35,3.35,0,0,0,3.53,1.44c0,.6.08,1.33.63,1.6a1.38,1.38,0,0,0,.61.1,4.6,4.6,0,0,0,1.71-.36,3.16,3.16,0,0,0,0,1.4,1.08,1.08,0,0,0,1,.82,1.6,1.6,0,0,0,.88-.51,4.55,4.55,0,0,0,1.46-1.94,19.44,19.44,0,0,0,.18-2.17c.16-.85.7-1.68.48-2.51s-.91-1.2-1.44-1.75-.85-1.53-.27-2,1.43-.05,1.95.47c.26.25.63.54.93.35s.21-.59.1-.89a12.56,12.56,0,0,1-.69-2,2.09,2.09,0,0,1,.56-2c.86-.73,2.25-.32,3.09-1S113.58,196.41,113.26,195.54Z" transform="translate(-9.98 -34.42)" fill="#3e3e54"/></svg>